HIERARCHY
ROOT Hips
{
	OFFSET 0.000000 0.000000 0.000000
	CHANNELS 6 Xposition Yposition Zposition Xrotation Yrotation Zrotation
	JOINT LeftUpLeg_virtual
	{
		OFFSET 0.000000 0.000000 0.000000
		CHANNELS 3 Xrotation Yrotation Zrotation
		JOINT LeftUpLeg
		{
			OFFSET 10.205400 -3.823500 0.155100
			CHANNELS 3 Xrotation Yrotation Zrotation
			JOINT LeftLeg
			{
				OFFSET 0.708757 -12.982077 0.567790
				CHANNELS 3 Xrotation Yrotation Zrotation
				JOINT LeftFoot
				{
					OFFSET -0.708756 -10.717838 -2.184338
					CHANNELS 3 Xrotation Yrotation Zrotation
					JOINT LeftToeBase
					{
						OFFSET 0.108149 -7.191104 7.560241
						CHANNELS 3 Xrotation Yrotation Zrotation
						JOINT LeftToe_End
						{
							OFFSET 0.070230 0.081724 4.490308
							CHANNELS 3 Xrotation Yrotation Zrotation
							End Site
							{
								OFFSET 0 0 0
							}
						}
					}
				}
			}
		}
	}
	JOINT RightUpLeg_virtual
	{
		OFFSET 0.000000 0.000000 0.000000
		CHANNELS 3 Xrotation Yrotation Zrotation
		JOINT RightUpLeg
		{
			OFFSET -10.205400 -3.823500 0.005500
			CHANNELS 3 Xrotation Yrotation Zrotation
			JOINT RightLeg
			{
				OFFSET -0.708756 -12.982134 0.610632
				CHANNELS 3 Xrotation Yrotation Zrotation
				JOINT RightFoot
				{
					OFFSET 0.708754 -10.717769 -1.945823
					CHANNELS 3 Xrotation Yrotation Zrotation
					JOINT RightToeBase
					{
						OFFSET -0.108140 -7.191069 7.372968
						CHANNELS 3 Xrotation Yrotation Zrotation
						JOINT RightToe_End
						{
							OFFSET -0.070227 0.081735 4.479403
							CHANNELS 3 Xrotation Yrotation Zrotation
							End Site
							{
								OFFSET 0 0 0
							}
						}
					}
				}
			}
		}
	}
	JOINT Spine_virtual
	{
		OFFSET 0.000000 0.000000 0.000000
		CHANNELS 3 Xrotation Yrotation Zrotation
		JOINT Spine
		{
			OFFSET 0.000000 6.876099 0.125700
			CHANNELS 3 Xrotation Yrotation Zrotation
			JOINT Spine1
			{
				OFFSET 0.000000 5.730043 0.104720
				CHANNELS 3 Xrotation Yrotation Zrotation
				JOINT Spine1_split
				{
					OFFSET 0.000000 5.730043 0.104720
					CHANNELS 3 Xrotation Yrotation Zrotation
					JOINT Spine2
					{
						OFFSET 0.000000 5.730043 0.104720
						CHANNELS 3 Xrotation Yrotation Zrotation
						JOINT Neck_virtual
						{
							OFFSET 0.000000 0.000000 0.000000
							CHANNELS 3 Xrotation Yrotation Zrotation
							JOINT Neck
							{
								OFFSET 0.000000 10.314075 0.188496
								CHANNELS 3 Xrotation Yrotation Zrotation
								JOINT Head
								{
									OFFSET 0.000000 7.643700 -2.377400
									CHANNELS 3 Xrotation Yrotation Zrotation
									JOINT HeadTop_End
									{
										OFFSET 0.000000 43.788605 -13.619600
										CHANNELS 3 Xrotation Yrotation Zrotation
										End Site
										{
											OFFSET 0 0 0
										}
									}
								}
							}
						}
						JOINT LeftShoulder_virtual
						{
							OFFSET 0.000000 0.000000 0.000000
							CHANNELS 3 Xrotation Yrotation Zrotation
							JOINT LeftShoulder
							{
								OFFSET 2.196100 4.412489 0.087492
								CHANNELS 3 Xrotation Yrotation Zrotation
								JOINT LeftShoulder_split
								{
									OFFSET 2.196100 4.412489 0.087492
									CHANNELS 3 Xrotation Yrotation Zrotation
									JOINT LeftArm
									{
										OFFSET 8.771219 -2.981674 -0.026999
										CHANNELS 3 Xrotation Yrotation Zrotation
										JOINT LeftForeArm
										{
											OFFSET 8.512804 0.000000 -0.000000
											CHANNELS 3 Xrotation Yrotation Zrotation
											JOINT LeftHand
											{
												OFFSET 18.484802 0.000000 -0.000000
												CHANNELS 3 Xrotation Yrotation Zrotation
												End Site
												{
													OFFSET 0 0 0
												}
											}
										}
									}
								}
							}
						}
						JOINT RightShoulder_virtual
						{
							OFFSET 0.000000 0.000000 0.000000
							CHANNELS 3 Xrotation Yrotation Zrotation
							JOINT RightShoulder
							{
								OFFSET -2.196100 4.412496 0.070690
								CHANNELS 3 Xrotation Yrotation Zrotation
								JOINT RightShoulder_split
								{
									OFFSET -2.196100 4.412496 0.070690
									CHANNELS 3 Xrotation Yrotation Zrotation
									JOINT RightArm
									{
										OFFSET -8.771282 -2.981682 -0.094208
										CHANNELS 3 Xrotation Yrotation Zrotation
										JOINT RightForeArm
										{
											OFFSET -8.494598 0.000000 0.000000
											CHANNELS 3 Xrotation Yrotation Zrotation
											JOINT RightHand
											{
												OFFSET -18.483803 0.000000 0.000001
												CHANNELS 3 Xrotation Yrotation Zrotation
												End Site
												{
													OFFSET 0 0 0
												}
											}
										}
									}
								}
							}
						}
					}
				}
			}
		}
	}
}
MOTION
Frames: 6
Frame Time: 0.03333333
0.966726 27.253590 -0.978737 0.000000 0.000000 0.000000 -5.397676 -46.011385 -0.112447 -38.222708 0.278065 24.761907 64.806993 -10.597489 3.829559 -23.765145 -5.113882 -21.315800 -1.594046 0.000025 0.000006 0.000000 0.000000 0.000000 -5.397676 -46.011385 -0.112447 -13.650837 -9.632080 -38.353817 66.374754 0.334409 -6.381266 -39.258998 -15.971557 30.409706 -0.013007 0.000010 0.000004 0.000000 0.000000 0.000000 -5.397676 -46.011385 -0.112447 9.463318 6.952819 -1.707177 2.187716 0.989897 -0.915630 0.000000 0.000000 0.000000 0.000000 0.000000 0.000000 2.202829 0.982769 -0.894152 0.084653 13.220556 4.538679 8.920926 20.138140 -4.130236 0.000000 0.000000 0.000000 2.202829 0.982769 -0.894152 1.117174 3.546337 -8.633445 0.000000 0.000000 0.000000 -53.487027 4.935512 -51.502994 -179.999978 -73.641904 -179.999978 0.000000 0.000000 0.000000 2.202829 0.982769 -0.894152 3.036134 13.027193 -5.371387 0.000000 0.000000 0.000000 -48.713712 27.172827 83.457071 179.999978 74.011698 -179.999991 0.000000 0.000000 0.000000 
1.043697 27.352386 -1.045122 0.000000 0.000000 0.000000 -5.977321 -46.401303 -0.017897 -37.034464 0.836173 24.072940 63.516545 -9.915427 3.800620 -23.219274 -5.118347 -21.533978 -1.594048 0.000022 0.000001 0.000000 0.000000 0.000000 -5.977321 -46.401303 -0.017897 -13.932347 -8.991213 -38.983868 66.621692 0.548488 -6.373483 -38.983656 -15.811353 30.269329 -0.013006 0.000011 0.000003 0.000000 0.000000 0.000000 -5.977321 -46.401303 -0.017897 9.087454 7.309165 -1.824018 3.124196 1.480132 -1.284677 0.000000 0.000000 0.000000 0.000000 0.000000 0.000000 3.136775 1.474854 -1.263944 0.728167 11.771774 3.506737 6.906012 19.480695 -3.816386 0.000000 0.000000 0.000000 3.136775 1.474854 -1.263944 0.863357 2.875887 -7.567593 0.000000 0.000000 0.000000 -50.820415 3.482949 -53.809757 -179.999964 -75.592244 -179.999964 0.000000 0.000000 0.000000 3.136775 1.474854 -1.263944 3.937036 14.543570 -4.656808 0.000000 0.000000 0.000000 -48.082097 26.964829 78.972485 179.999991 72.842287 179.999991 0.000000 0.000000 0.000000 
1.103276 27.441147 -1.112598 0.000000 0.000000 0.000000 -6.837302 -46.170381 1.179400 -35.177732 1.881516 21.694568 60.663602 -8.845022 3.426153 -21.591591 -5.520355 -21.524101 -1.594048 0.000025 0.000004 0.000000 0.000000 0.000000 -6.837302 -46.170381 1.179400 -13.120151 -7.746726 -40.902677 67.452544 1.407352 -6.189694 -39.422339 -17.313225 30.190396 -0.013011 0.000011 0.000003 0.000000 0.000000 0.000000 -6.837302 -46.170381 1.179400 8.189270 9.375516 -2.461237 3.949817 2.831921 -1.994073 0.000000 0.000000 0.000000 0.000000 0.000000 0.000000 3.961718 2.828647 -1.970930 2.071402 9.285618 1.530602 7.438203 14.664105 -4.681024 0.000000 0.000000 0.000000 3.961718 2.828647 -1.970930 0.791110 2.710392 -7.177354 0.000000 0.000000 0.000000 -48.569899 -4.910037 -60.701428 -179.999991 -82.504198 -179.999978 0.000000 0.000000 0.000000 3.961718 2.828647 -1.970930 4.917526 16.582046 -3.718180 0.000000 0.000000 0.000000 -42.928384 23.446344 69.552206 179.999964 69.842400 179.999991 0.000000 0.000000 0.000000 
1.107936 27.500198 -1.051050 0.000000 0.000000 0.000000 -8.974847 -45.022835 3.821344 -31.275689 4.535280 16.634489 55.041872 -8.010372 2.503830 -18.336336 -6.593760 -20.457646 -1.594044 0.000031 0.000002 0.000000 0.000000 0.000000 -8.974847 -45.022835 3.821344 -8.953298 -5.935759 -45.336753 68.319247 3.596848 -5.699827 -40.873194 -21.906575 30.426102 -0.013009 0.000011 0.000002 0.000000 0.000000 0.000000 -8.974847 -45.022835 3.821344 5.762765 12.709967 -1.455133 4.236733 4.814901 -2.143510 0.000000 0.000000 0.000000 0.000000 0.000000 0.000000 4.249526 4.811978 -2.116261 3.891628 5.276001 -1.425512 13.797754 4.380310 -13.892209 0.000000 0.000000 0.000000 4.249526 4.811978 -2.116261 0.929808 3.188693 -7.519387 0.000000 0.000000 0.000000 -46.143833 -18.730136 -73.692359 0.000039 -81.467949 0.000039 0.000000 0.000000 0.000000 4.249526 4.811978 -2.116261 5.755408 17.273070 -2.428647 0.000000 0.000000 0.000000 -36.469204 18.420484 57.116074 179.999964 68.127189 -179.999991 0.000000 0.000000 0.000000 
1.227274 27.599705 -0.993547 0.000000 0.000000 0.000000 -10.729921 -46.624408 5.552857 -26.148626 6.848110 13.945370 49.950710 -6.323266 0.373476 -16.593279 -7.461375 -19.580124 -1.594045 0.000032 0.000004 0.000000 0.000000 0.000000 -10.729921 -46.624408 5.552857 -7.659341 -2.255511 -49.097637 69.662001 5.170994 -5.575490 -40.872955 -23.688317 30.822574 -0.013012 0.000011 0.000003 0.000000 0.000000 0.000000 -10.729921 -46.624408 5.552857 3.727849 12.589712 1.989350 4.753644 5.232787 -1.167308 0.000000 0.000000 0.000000 0.000000 0.000000 0.000000 4.761698 5.229828 -1.144618 4.253102 2.316222 -3.202345 12.483267 0.751029 -23.821039 0.000000 0.000000 0.000000 4.761698 5.229828 -1.144618 0.657212 2.448331 -5.888297 0.000000 0.000000 0.000000 -38.859938 -20.796186 -78.116962 -0.000015 -72.965968 0.000012 0.000000 0.000000 0.000000 4.761698 5.229828 -1.144618 6.330092 17.071522 -0.268327 0.000000 0.000000 0.000000 -39.002699 25.029256 51.536803 179.999950 73.115618 180.000005 0.000000 0.000000 0.000000 
1.488386 27.856312 -0.959213 0.000000 0.000000 0.000000 -10.346400 -52.700633 6.383718 -20.294249 8.093568 14.214483 46.349332 -2.630649 -2.738978 -17.716257 -6.524078 -19.838191 -1.594048 0.000021 0.000001 0.000000 0.000000 0.000000 -10.346400 -52.700633 6.383718 -13.421121 5.215511 -50.383194 71.718639 5.174278 -6.064530 -37.773217 -19.667028 31.418904 -0.013005 0.000011 0.000002 0.000000 0.000000 0.000000 -10.346400 -52.700633 6.383718 3.859086 9.819958 5.144210 6.162758 4.421802 -0.121473 0.000000 0.000000 0.000000 0.000000 0.000000 0.000000 6.163487 4.420176 -0.107407 2.638656 1.189297 -2.695916 1.553739 6.131259 -25.342765 0.000000 0.000000 0.000000 6.163487 4.420176 -0.107407 0.009660 0.674596 -1.908325 0.000000 0.000000 0.000000 -26.876137 -12.638214 -75.502564 0.000004 -75.242143 0.000043 0.000000 0.000000 0.000000 6.163487 4.420176 -0.107407 6.579924 18.426110 3.399829 0.000000 0.000000 0.000000 -48.244659 40.936346 53.198475 179.999937 81.771564 -179.999964 0.000000 0.000000 0.000000 
